<?xml version="1.0" standalone="no"?>
<!DOCTYPE svg PUBLIC "-//W3C//DTD SVG 20010904//EN"
 "http://www.w3.org/TR/2001/REC-SVG-20010904/DTD/svg10.dtd">
<svg version="1.0" xmlns="http://www.w3.org/2000/svg"
 width="525.000000pt" height="475.000000pt" viewBox="0 0 525.000000 475.000000"
 preserveAspectRatio="xMidYMid meet">
<metadata>
Created by potrace 1.16, written by Peter Selinger 2001-2019
</metadata>
<g transform="translate(0.000000,475.000000) scale(0.100000,-0.100000)"
fill="#000000" stroke="none">
<path d="M2516 4471 c-27 -3 -51 -11 -53 -18 -2 -6 28 -47 68 -90 40 -43 84
-90 97 -105 l24 -26 -31 -132 c-17 -73 -31 -138 -31 -146 0 -23 25 -17 155 42
l125 56 113 -71 c153 -95 147 -94 146 -35 0 27 -4 69 -9 94 -6 31 -6 18 -3
-45 l6 -89 -24 15 c-13 9 -70 44 -127 79 l-103 63 -130 -58 c-71 -32 -132 -56
-135 -53 -3 3 9 67 26 143 l32 137 -39 44 c-21 24 -65 73 -97 109 -32 36 -57
67 -55 70 2 2 54 8 114 13 79 7 92 9 45 9 -36 0 -87 -3 -114 -6z"/>
<path d="M1140 4202 c-38 -19 -80 -88 -80 -132 0 -17 -13 -38 -35 -60 -47 -46
-65 -88 -65 -154 0 -64 32 -173 67 -228 21 -34 28 -38 63 -38 34 0 42 -4 50
-26 27 -70 6 -102 -88 -134 -56 -19 -83 -53 -89 -116 -3 -27 -13 -60 -23 -74
-9 -14 -19 -32 -23 -41 -8 -25 17 -114 34 -117 9 -2 30 24 54 65 58 98 170
245 260 342 l79 83 -22 39 c-37 63 -42 117 -21 206 18 77 18 107 -4 151 -8 18
-8 28 2 43 13 22 7 119 -11 152 -12 23 -67 57 -93 57 -11 0 -36 -8 -55 -18z"/>
<path d="M1859 4045 c-17 -29 -27 -35 -54 -35 -49 0 -61 -21 -29 -51 23 -22
25 -29 19 -76 -3 -29 -3 -53 0 -53 4 0 23 8 42 17 35 16 37 16 75 -6 21 -12
42 -20 47 -17 5 3 6 25 4 48 -4 38 -2 46 26 71 36 32 34 43 -12 52 -42 9 -54
20 -62 56 -9 39 -31 37 -56 -6z m53 -14 c14 -35 20 -40 59 -46 l43 -7 -32 -29
c-27 -24 -32 -36 -32 -75 l0 -45 -29 20 c-35 25 -52 26 -91 6 l-30 -15 7 45
c5 41 3 49 -21 74 -31 32 -26 41 24 41 32 0 39 5 56 35 10 19 21 35 25 35 3 0
13 -18 21 -39z"/>
<path d="M4140 3790 c-13 -19 -30 -30 -45 -30 -33 0 -38 -14 -16 -41 13 -17
17 -33 14 -56 -6 -36 1 -40 40 -22 19 9 30 8 49 -5 30 -19 38 -13 38 30 0 23
6 37 20 44 29 16 24 37 -11 45 -19 4 -34 16 -39 30 -14 36 -27 38 -50 5z"/>
<path d="M4315 3617 c-10 -17 -26 -27 -41 -27 -30 0 -38 -14 -22 -42 7 -13 13
-36 13 -53 0 -24 4 -30 20 -27 27 3 45 3 75 0 21 -3 25 1 28 29 2 17 10 37 18
43 21 19 17 30 -16 41 -16 6 -30 14 -30 18 0 4 -6 16 -14 26 -13 18 -14 17
-31 -8z"/>
<path d="M1462 3623 c-19 -7 -42 -58 -42 -92 0 -24 -20 -54 -86 -133 -246
-294 -410 -637 -485 -1013 -39 -199 -36 -559 7 -835 58 -368 231 -739 499
-1065 86 -105 176 -195 195 -195 6 0 28 13 48 29 53 42 157 96 225 117 31 10
57 21 57 26 0 5 -42 28 -92 52 -186 86 -321 181 -467 329 -160 162 -263 325
-347 545 -71 187 -77 304 -22 451 43 114 114 200 310 374 98 86 130 146 136
256 4 74 0 99 -40 238 -11 39 -10 43 19 76 17 19 32 40 34 46 2 6 42 18 88 26
46 9 118 25 160 35 98 25 108 26 90 3 -13 -16 -12 -17 3 -4 10 7 16 16 14 20
-3 4 18 15 45 24 58 21 84 53 74 95 -3 16 -23 59 -45 95 -30 52 -38 74 -34
100 4 27 -8 53 -75 166 -90 150 -107 172 -170 212 -43 28 -70 34 -99 22z m102
-443 c21 -38 39 -70 42 -70 3 0 16 8 31 17 25 17 26 16 54 -18 16 -19 28 -36
29 -39 0 -7 -104 -72 -155 -98 -70 -34 -215 -56 -215 -32 0 24 157 310 170
310 4 0 24 -31 44 -70z"/>
<path d="M4441 3435 c-18 -31 -25 -35 -61 -35 -47 0 -52 -15 -15 -50 21 -19
24 -30 19 -57 -10 -55 -1 -65 41 -47 31 13 39 13 65 -1 43 -22 50 -19 50 25 0
31 6 47 25 64 35 33 32 54 -7 58 -27 2 -37 10 -51 41 -23 46 -39 47 -66 2z
m59 -22 c0 -15 32 -33 59 -33 28 0 26 -18 -4 -42 -19 -15 -25 -29 -25 -59 0
-42 -6 -47 -36 -24 -24 18 -42 19 -78 0 l-28 -15 6 44 c6 38 3 48 -19 75 l-27
31 34 0 c39 0 47 5 72 44 18 28 19 29 32 11 8 -10 14 -25 14 -32z"/>
<path d="M4728 2933 c-9 -10 -23 -33 -32 -50 -15 -30 -20 -33 -65 -33 -91 0
-101 -16 -46 -70 38 -37 43 -66 25 -130 -14 -50 -1 -57 64 -30 l56 22 44 -26
c71 -42 80 -38 72 37 l-7 64 45 37 c25 21 46 44 46 51 0 9 -22 19 -61 27 -61
12 -61 13 -85 65 -25 57 -33 62 -56 36z m51 -47 c22 -54 22 -54 81 -65 33 -7
60 -16 60 -20 0 -5 -18 -21 -39 -35 -49 -34 -54 -46 -45 -113 3 -29 3 -53 -1
-53 -4 0 -29 12 -55 26 l-48 26 -56 -21 c-31 -12 -58 -21 -60 -21 -4 0 10 69
20 102 3 11 -10 34 -37 63 -23 25 -39 48 -36 51 3 3 32 8 64 11 59 5 60 6 87
54 15 27 31 49 35 49 4 0 17 -24 30 -54z"/>
<path d="M3118 2847 c-60 -17 -116 -61 -134 -103 -18 -43 -18 -118 1 -153 35
-69 87 -91 265 -111 110 -13 140 -28 140 -69 0 -62 -87 -100 -195 -86 -66 8
-157 52 -170 83 -5 12 -12 22 -15 22 -4 0 -23 -42 -56 -125 -3 -6 12 -16 33
-22 21 -6 65 -22 98 -34 79 -29 217 -32 291 -6 49 17 100 60 123 104 15 30 14
119 -3 151 -36 68 -93 95 -243 112 -54 6 -113 16 -131 21 -37 12 -50 45 -32
79 39 72 248 64 326 -14 l32 -32 31 63 c35 71 36 76 19 70 -7 -2 -49 10 -93
26 -95 34 -213 44 -287 24z"/>
<path d="M3752 2841 c-92 -32 -132 -85 -132 -177 0 -117 54 -156 242 -180 143
-17 172 -28 176 -66 7 -60 -85 -106 -188 -94 -67 8 -161 53 -175 84 -5 12 -12
22 -16 22 -5 0 -59 -123 -59 -134 0 -2 10 -6 23 -9 12 -3 54 -18 92 -33 89
-34 230 -40 311 -11 49 17 100 60 123 104 14 28 14 118 0 146 -38 74 -93 98
-268 120 -89 12 -118 19 -134 36 -29 28 -14 70 33 94 77 40 267 -1 301 -65 11
-21 14 -18 45 43 39 75 39 78 17 77 -10 0 -59 13 -109 31 -109 37 -199 41
-282 12z"/>
<path d="M1808 2838 c15 -15 17 -588 2 -588 -5 0 -10 -4 -10 -10 0 -6 33 -10
80 -10 73 0 97 9 70 25 -6 4 -10 82 -10 203 0 116 4 192 9 187 5 -6 55 -99
111 -209 l103 -198 41 75 c23 41 73 133 111 205 39 72 73 132 78 132 4 0 7
-86 7 -192 0 -164 -2 -194 -17 -210 -15 -17 -13 -18 75 -18 51 0 92 3 92 6 0
3 -7 12 -15 20 -23 23 -22 539 1 572 l15 22 -112 0 c-88 0 -110 -3 -101 -12 7
-7 12 -19 12 -28 0 -19 -163 -323 -176 -327 -5 -2 -47 73 -94 166 -71 144 -82
172 -71 185 12 14 2 16 -100 16 -88 0 -110 -3 -101 -12z"/>
<path d="M2685 2826 c14 -21 16 -62 13 -297 -2 -207 -6 -273 -15 -277 -7 -2
-13 -8 -13 -13 0 -5 38 -9 85 -9 77 0 102 8 75 25 -6 4 -10 109 -10 282 0 243
2 279 17 295 15 17 13 18 -76 18 l-91 0 15 -24z"/>
<path d="M2592 2798 c-19 -19 -17 -488 2 -513 12 -16 16 -17 30 -6 14 12 16
46 16 260 0 237 -4 271 -30 271 -3 0 -11 -5 -18 -12z m33 -254 c0 -215 -2
-249 -15 -249 -13 0 -15 33 -18 230 -3 238 0 279 21 272 9 -3 12 -66 12 -253z"/>
<path d="M4181 2550 c12 -16 28 -57 35 -90 11 -54 10 -66 -7 -111 -10 -29 -26
-61 -36 -73 -17 -20 -17 -20 1 -6 11 8 30 39 42 68 13 28 26 52 29 52 8 0 89
-90 102 -114 7 -11 13 -32 13 -46 1 -52 17 -55 39 -6 11 26 23 62 27 82 3 19
11 37 17 41 5 3 7 1 3 -5 -8 -13 10 -25 46 -29 26 -3 35 12 17 27 -4 3 -3 14
1 25 6 18 8 17 23 -11 12 -23 13 -34 4 -43 -6 -6 -7 -11 -2 -11 15 0 65 63 65
81 0 28 -33 41 -58 23 -20 -14 -22 -14 -22 4 0 10 -9 27 -20 37 -19 17 -21 17
-39 1 -15 -14 -17 -24 -11 -51 6 -27 5 -35 -6 -35 -8 0 -14 10 -14 25 0 14 -6
41 -14 60 -12 29 -12 34 0 39 21 8 17 36 -6 36 -11 0 -20 -7 -20 -15 0 -8 -6
-12 -15 -9 -11 5 -12 10 -2 25 9 15 8 22 -5 35 -9 9 -21 13 -27 10 -19 -12
-12 -24 10 -19 16 4 20 2 17 -8 -6 -18 -48 -20 -55 -3 -3 8 -14 14 -24 14 -14
0 -19 -7 -19 -26 0 -14 -4 -23 -9 -20 -5 4 -13 -8 -16 -26 l-7 -32 -17 45
c-20 52 -43 89 -54 89 -4 0 2 -13 14 -30z"/>
<path d="M1481 2110 c-16 -14 -38 -20 -72 -20 -37 0 -53 -5 -69 -22 -25 -28
-26 -60 0 -83 43 -39 115 -5 164 80 36 61 24 84 -23 45z"/>
<path d="M1985 2100 c-4 -6 -82 -10 -203 -10 -152 0 -193 -3 -184 -12 17 -17
17 -399 0 -416 -9 -9 0 -12 42 -12 l55 0 0 32 c1 18 2 63 3 101 l2 67 86 0
c47 0 94 -5 105 -10 18 -10 19 -7 19 42 0 40 -3 49 -12 40 -8 -8 -46 -12 -105
-12 l-93 0 0 56 0 55 150 -3 150 -3 0 48 c0 47 -3 56 -15 37z"/>
<path d="M2098 1885 c2 -154 6 -203 15 -200 7 2 24 6 40 9 l27 6 0 125 c0 69
3 125 8 125 4 0 58 -56 121 -124 109 -119 116 -124 160 -129 25 -2 52 -6 59
-8 10 -3 13 34 12 184 -1 130 3 193 11 203 10 12 3 14 -42 14 l-54 0 2 -147 3
-148 -125 130 c-84 88 -124 136 -121 148 4 15 -4 17 -57 17 l-62 0 3 -205z"/>
<path d="M2648 2083 c9 -3 12 -46 12 -163 0 -157 7 -199 37 -232 14 -15 18
-16 36 -3 12 8 38 15 59 15 43 0 51 15 13 24 -49 13 -56 39 -53 210 l3 156
-60 -1 c-33 0 -54 -3 -47 -6z"/>
<path d="M2995 1895 l0 -195 31 0 c47 0 54 27 54 208 0 110 4 162 12 170 9 9
0 12 -42 12 l-55 0 0 -195z"/>
<path d="M3307 2068 c3 -14 -26 -89 -76 -195 l-80 -173 43 0 c39 0 45 3 56 30
10 25 18 30 46 30 21 0 42 8 54 20 17 17 33 20 105 20 47 0 85 2 85 4 0 3 -27
62 -60 132 -44 95 -56 131 -48 141 8 10 -3 13 -59 13 -67 0 -70 -1 -66 -22z"/>
<path d="M3688 2078 c8 -8 12 -63 12 -182 0 -94 4 -177 8 -184 6 -8 19 -10 40
-6 l32 7 0 121 1 121 113 -119 113 -119 66 -1 67 -1 0 182 c0 136 3 183 13
186 6 3 -17 6 -52 6 -51 1 -62 -2 -53 -11 14 -14 17 -282 3 -276 -21 7 -241
255 -241 271 0 14 -10 17 -67 17 -52 0 -64 -3 -55 -12z"/>
<path d="M4258 1895 c3 -188 4 -195 22 -185 10 5 30 10 44 10 l26 0 0 173 c0
121 4 177 12 185 9 9 -1 12 -47 12 l-60 0 3 -195z"/>
<path d="M1562 1882 c-1 -116 -5 -163 -13 -160 -6 2 -26 31 -43 63 -32 62 -42
141 -23 193 11 30 -13 30 -39 -1 -77 -88 -124 -195 -124 -280 0 -95 62 -177
133 -177 56 0 108 42 107 87 -1 11 -6 6 -15 -14 -14 -32 -59 -63 -92 -63 -33
0 -80 38 -102 82 -42 88 -18 195 70 317 49 67 63 76 47 30 -16 -45 -5 -121 26
-176 15 -26 32 -60 39 -75 6 -16 15 -28 20 -28 4 0 6 4 3 9 -4 5 -1 11 4 13 7
2 9 63 7 173 l-3 170 -2 -163z"/>
<path d="M5083 1739 c-7 -7 -13 -26 -13 -41 0 -17 -5 -28 -14 -28 -22 0 -27
-27 -5 -33 17 -5 19 -15 19 -99 0 -103 7 -118 52 -118 33 0 39 25 8 33 -18 5
-20 14 -21 81 -1 42 -2 82 -3 89 -1 6 9 13 22 15 28 4 24 26 -6 30 -17 3 -22
11 -24 43 -2 32 -5 38 -15 28z"/>
<path d="M3400 1570 c0 -163 1 -170 20 -170 18 0 20 7 20 69 l0 69 79 3 c67 3
84 8 104 27 33 31 41 65 26 109 -15 48 -56 63 -164 63 l-85 0 0 -170z m208 98
c28 -59 -31 -104 -126 -96 l-37 3 -3 62 -3 62 43 3 c75 5 112 -5 126 -34z"/>
<path d="M1760 1550 l0 -170 90 0 c130 0 164 22 162 105 0 19 -10 38 -27 52
l-26 23 22 29 c29 39 19 85 -24 112 -25 15 -51 19 -114 19 l-83 0 0 -170z
m185 110 c23 -26 13 -68 -21 -80 -14 -6 -48 -10 -75 -10 l-49 0 0 55 0 55 63
0 c51 0 68 -4 82 -20z m-5 -133 c20 -10 25 -20 25 -52 0 -49 -25 -65 -107 -65
l-58 0 0 58 c0 32 3 62 7 65 11 12 107 7 133 -6z"/>
<path d="M2902 1708 c-7 -7 -12 -24 -12 -39 0 -15 -7 -29 -15 -33 -19 -7 -20
-26 -1 -26 11 0 15 -22 18 -100 3 -109 9 -120 61 -120 34 0 35 17 2 30 -24 9
-25 13 -25 100 0 83 1 90 20 90 11 0 20 7 20 15 0 8 -9 15 -20 15 -17 0 -20 7
-20 40 0 41 -7 49 -28 28z"/>
<path d="M4855 1653 c-20 -11 -30 -12 -33 -4 -2 6 -10 11 -18 11 -11 0 -14
-23 -14 -120 0 -113 1 -120 20 -120 17 0 20 8 22 91 3 87 4 93 31 113 26 19
30 19 55 5 26 -14 27 -18 30 -112 2 -89 4 -97 22 -97 19 0 20 7 20 100 0 94
-2 103 -25 125 -28 29 -66 32 -110 8z"/>
<path d="M4040 1651 c-57 -16 -89 -116 -56 -179 25 -48 51 -65 93 -60 21 3 46
8 56 12 13 7 17 3 17 -16 0 -44 -26 -68 -75 -68 -34 0 -47 5 -55 20 -12 23
-40 27 -40 5 0 -31 42 -55 96 -55 69 0 94 21 104 86 12 72 0 254 -16 254 -7 0
-14 -5 -16 -11 -2 -6 -14 -5 -33 5 -32 17 -37 18 -75 7z m80 -39 c34 -27 39
-108 10 -144 -26 -34 -71 -37 -100 -8 -31 31 -28 113 5 145 29 30 55 32 85 7z"/>
<path d="M4288 1640 c-58 -45 -64 -147 -12 -201 24 -25 35 -29 81 -29 44 0 59
5 78 25 28 27 31 40 11 48 -7 3 -23 -5 -35 -19 -30 -34 -82 -33 -110 2 -37 46
-29 54 53 54 90 0 106 5 106 36 0 84 -106 137 -172 84z"/>
<path d="M4546 1639 c-27 -22 -35 -49 -13 -49 7 0 20 9 30 20 20 24 88 28 107
5 26 -31 8 -49 -60 -61 -70 -13 -100 -37 -100 -80 0 -57 78 -83 144 -49 27 14
31 14 38 0 14 -25 41 -19 34 8 -3 12 -6 59 -6 105 0 69 -3 85 -20 102 -28 28
-117 28 -154 -1z"/>
<path d="M3736 1625 c-14 -13 -26 -29 -26 -35 0 -18 35 -11 48 10 18 29 97 29
112 -1 18 -32 6 -46 -47 -53 -72 -10 -100 -24 -114 -57 -10 -26 -9 -34 8 -57
25 -34 91 -42 130 -16 24 15 27 15 38 0 28 -38 35 -17 29 92 -7 129 -16 142
-99 142 -41 0 -57 -5 -79 -25z"/>
<path d="M2403 1629 c-29 -8 -63 -41 -63 -61 0 -15 38 -8 44 7 8 21 52 36 82
29 14 -4 31 -18 37 -31 14 -31 3 -39 -67 -48 -91 -11 -132 -70 -82 -119 29
-30 75 -34 120 -11 20 11 33 12 40 5 5 -5 16 -10 23 -10 20 0 6 200 -16 221
-21 21 -77 30 -118 18z"/>
<path d="M3000 1634 c0 -4 21 -62 47 -127 43 -112 45 -122 32 -146 -8 -14 -25
-27 -37 -29 -26 -4 -27 -35 -1 -40 35 -6 60 34 114 182 30 82 55 153 55 158 0
4 -6 8 -14 8 -14 0 -39 -56 -66 -147 -7 -24 -16 -43 -20 -43 -4 0 -22 42 -41
92 -23 63 -40 94 -52 96 -9 2 -17 0 -17 -4z"/>
<path d="M2122 1617 c-47 -26 -67 -85 -52 -153 13 -56 49 -84 111 -84 43 0 55
5 82 31 28 29 29 32 13 41 -15 8 -23 5 -40 -17 -18 -22 -28 -26 -61 -23 -32 2
-42 9 -58 35 -10 18 -16 37 -12 43 3 6 45 10 96 10 83 0 89 1 89 20 0 29 -26
76 -52 94 -27 19 -84 20 -116 3z"/>
<path d="M2613 1529 c7 -111 17 -133 68 -144 21 -5 40 -1 64 14 28 16 35 17
35 6 0 -8 7 -15 15 -15 13 0 15 20 15 120 0 100 -2 120 -15 120 -12 0 -15 -14
-15 -69 0 -85 -15 -130 -47 -142 -34 -13 -40 -12 -63 11 -17 17 -20 33 -20
110 0 85 -1 90 -22 90 -21 0 -21 -2 -15 -101z"/>
<path d="M818 1545 c-8 -14 18 -336 42 -525 79 -607 142 -832 268 -956 68 -67
155 -83 235 -43 47 24 162 136 172 168 5 16 -9 34 -68 91 -201 191 -408 521
-520 830 -44 122 -97 317 -97 362 -1 31 -25 85 -32 73z"/>
<path d="M1585 1526 c-9 -14 -32 -30 -51 -36 -67 -23 -86 -75 -38 -106 24 -16
28 -16 60 0 39 18 64 65 64 120 0 44 -15 53 -35 22z"/>
<path d="M1005 1430 c-10 -16 169 -224 264 -308 147 -129 290 -212 471 -274
77 -26 237 -68 260 -68 20 0 9 31 -26 77 -33 43 -35 51 -30 97 3 28 6 64 8 81
l3 30 -105 3 c-287 8 -547 116 -776 323 -59 53 -60 54 -69 39z"/>
<path d="M786 1364 c-12 -63 -92 -297 -121 -354 -91 -180 -234 -326 -381 -392
-38 -16 -258 -78 -280 -78 -10 0 -3 -91 11 -123 29 -70 102 -108 249 -127 l99
-13 39 44 c172 199 308 494 363 794 l15 80 -6 -80 c-17 -261 -136 -547 -321
-778 -60 -75 -65 -104 -18 -99 17 1 89 5 160 8 111 5 143 3 216 -15 105 -25
147 -27 156 -5 3 9 -10 71 -30 138 -61 206 -82 352 -114 794 -9 133 -20 242
-24 242 -4 0 -10 -16 -13 -36z"/>
<path d="M1010 1346 c0 -28 111 -220 188 -326 82 -111 252 -276 362 -349 157
-105 382 -211 446 -211 40 0 100 63 110 115 8 42 -1 122 -16 140 -6 7 -36 15
-68 18 -220 24 -495 139 -691 290 -81 62 -227 212 -272 278 -39 57 -59 73 -59
45z"/>
<path d="M4181 811 c-6 -10 -24 -21 -41 -24 -33 -7 -39 -27 -14 -48 11 -9 14
-22 10 -45 l-6 -31 65 0 c63 1 65 1 65 27 0 14 7 36 16 48 18 26 11 42 -17 42
-12 0 -23 10 -29 25 -11 30 -35 33 -49 6z"/>
<path d="M2908 792 c-7 -10 -27 -22 -45 -25 -18 -4 -42 -16 -54 -28 -18 -18
-20 -25 -10 -40 8 -13 8 -19 0 -19 -16 0 -5 -25 12 -26 41 -3 43 -4 32 -15 -6
-6 -9 -18 -6 -25 10 -28 -17 -41 -95 -48 l-78 -7 0 -47 1 -47 -95 -7 c-52 -4
-202 -11 -333 -16 -131 -5 -240 -12 -243 -15 -3 -3 10 -16 28 -30 121 -91 396
-174 689 -207 149 -18 459 -8 612 19 151 26 288 63 382 102 103 42 229 120
233 143 4 18 -3 19 -146 14 -141 -5 -259 6 -278 25 -13 13 -51 7 -75 -12 -16
-12 -50 -21 -102 -26 l-77 -7 -27 31 c-15 17 -32 31 -38 31 -16 0 -67 55 -58
63 3 4 15 7 25 7 10 0 18 5 18 10 0 6 7 10 15 10 8 0 15 7 15 15 0 8 -8 15
-17 14 -12 0 -13 -2 -5 -6 17 -7 -15 -32 -40 -33 -10 0 -18 -5 -18 -11 0 -7
-12 -9 -35 -5 -41 8 -44 -2 -12 -32 28 -27 47 -28 47 -4 1 13 5 11 21 -10 11
-16 29 -28 39 -28 10 0 22 -9 25 -20 3 -11 15 -25 27 -31 27 -15 188 -1 195
16 6 17 52 28 66 17 28 -22 132 -31 279 -25 152 6 153 6 135 -14 -29 -33 -207
-121 -318 -157 -128 -42 -189 -52 -220 -36 -22 10 -22 10 -6 -3 16 -13 14 -15
-20 -20 -21 -3 -49 -5 -63 -3 -14 1 -27 -1 -30 -5 -9 -13 -213 -30 -224 -19
-5 5 -30 9 -56 9 -45 -2 -45 -2 -10 -9 30 -6 26 -7 -25 -8 -42 0 -53 2 -35 8
14 4 -33 7 -105 6 -71 -1 -155 2 -185 7 -200 28 -419 93 -538 160 l-74 42 49
6 c26 3 118 7 203 7 85 1 187 7 227 13 39 6 88 9 110 7 21 -3 49 -1 61 4 21 7
24 14 20 53 -2 25 0 45 4 45 5 0 8 -22 8 -50 0 -53 8 -61 35 -33 11 10 15 28
13 49 -4 35 8 44 64 44 14 0 29 6 31 13 4 10 6 10 6 0 1 -7 10 -13 21 -13 17
0 20 -7 20 -40 0 -43 12 -50 44 -27 16 11 17 22 11 66 -8 59 -25 73 -55 46
-11 -10 -23 -15 -27 -12 -3 4 -3 7 2 7 4 0 2 7 -5 15 -10 12 -9 16 4 21 25 10
19 22 -14 29 -17 4 -27 11 -24 17 4 6 0 14 -7 19 -11 8 -8 14 14 34 15 14 37
25 49 25 11 0 31 11 44 25 13 14 19 25 14 25 -5 0 -15 -8 -22 -18z"/>
<path d="M3984 646 c-8 -14 -29 -28 -45 -31 -32 -7 -36 -21 -15 -50 9 -12 12
-32 8 -54 -5 -31 -3 -34 14 -26 10 5 39 9 64 9 40 1 45 4 48 26 2 13 10 33 18
44 15 21 3 46 -22 46 -7 0 -20 14 -29 30 -19 36 -20 36 -41 6z"/>
</g>
</svg>
