<svg width="516" height="448" viewBox="0 0 516 448" fill="none" xmlns="http://www.w3.org/2000/svg">
<path d="M251.671 0.599773C248.971 0.899773 246.571 1.69977 246.371 2.39977C246.171 2.99977 249.171 7.09977 253.171 11.3998C257.171 15.6998 261.571 20.3998 262.871 21.8998L265.271 24.4998L262.171 37.6998C260.471 44.9998 259.071 51.4998 259.071 52.2998C259.071 54.5998 261.571 53.9998 274.571 48.0998L287.071 42.4998L298.371 49.5998C313.671 59.0998 313.071 58.9998 312.971 53.0998C312.971 50.3998 312.571 46.1998 312.071 43.6998C311.471 40.5998 311.471 41.8998 311.771 48.1998L312.371 57.0998L309.971 55.5998C308.671 54.6998 302.971 51.1998 297.271 47.6998L286.971 41.3998L273.971 47.1998C266.871 50.3998 260.771 52.7998 260.471 52.4998C260.171 52.1998 261.371 45.7998 263.071 38.1998L266.271 24.4998L262.371 20.0998C260.271 17.6998 255.871 12.7998 252.671 9.19977C249.471 5.59977 246.971 2.49977 247.171 2.19977C247.371 1.99977 252.571 1.39977 258.571 0.899773C266.471 0.199773 267.771 -0.000226682 263.071 -0.000226682C259.471 -0.000226682 254.371 0.299773 251.671 0.599773Z" fill="white"/>
<path d="M114.071 27.5C110.271 29.4 106.071 36.3 106.071 40.7C106.071 42.4 104.771 44.5 102.571 46.7C97.8709 51.3 96.0709 55.5 96.0709 62.1C96.0709 68.5 99.2709 79.4 102.771 84.9C104.871 88.3 105.571 88.7 109.071 88.7C112.471 88.7 113.271 89.1 114.071 91.3C116.771 98.3 114.671 101.5 105.271 104.7C99.6709 106.6 96.9709 110 96.3709 116.3C96.0709 119 95.0709 122.3 94.0709 123.7C93.1709 125.1 92.1709 126.9 91.7709 127.8C90.9709 130.3 93.4709 139.2 95.1709 139.5C96.0709 139.7 98.1709 137.1 100.571 133C106.371 123.2 117.571 108.5 126.571 98.8L134.471 90.5L132.271 86.6C128.571 80.3 128.071 74.9 130.171 66C131.971 58.3 131.971 55.3 129.771 50.9C128.971 49.1 128.971 48.1 129.971 46.6C131.271 44.4 130.671 34.7 128.871 31.4C127.671 29.1 122.171 25.7 119.571 25.7C118.471 25.7 115.971 26.5 114.071 27.5Z" fill="white"/>
<path d="M185.97 43.2C184.27 46.1 183.27 46.7 180.57 46.7C175.67 46.7 174.47 48.8 177.67 51.8C179.97 54 180.17 54.7 179.57 59.4C179.27 62.3 179.27 64.7 179.57 64.7C179.97 64.7 181.87 63.9 183.77 63C187.27 61.4 187.47 61.4 191.27 63.6C193.37 64.8 195.47 65.6 195.97 65.3C196.47 65 196.57 62.8 196.37 60.5C195.97 56.7 196.17 55.9 198.97 53.4C202.57 50.2 202.37 49.1 197.77 48.2C193.57 47.3 192.37 46.2 191.57 42.6C190.67 38.7 188.47 38.9 185.97 43.2ZM191.27 44.6C192.67 48.1 193.27 48.6 197.17 49.2L201.47 49.9L198.27 52.8C195.57 55.2 195.07 56.4 195.07 60.3V64.8L192.17 62.8C188.67 60.3 186.97 60.2 183.07 62.2L180.07 63.7L180.77 59.2C181.27 55.1 181.07 54.3 178.67 51.8C175.57 48.6 176.07 47.7 181.07 47.7C184.27 47.7 184.97 47.2 186.67 44.2C187.67 42.3 188.77 40.7 189.17 40.7C189.47 40.7 190.47 42.5 191.27 44.6Z" fill="white"/>
<path d="M414.071 68.6997C412.771 70.5997 411.071 71.6997 409.571 71.6997C406.271 71.6997 405.771 73.0997 407.971 75.7997C409.271 77.4997 409.671 79.0997 409.371 81.3997C408.771 84.9997 409.471 85.3997 413.371 83.5997C415.271 82.6997 416.371 82.7997 418.271 84.0997C421.271 85.9997 422.071 85.3997 422.071 81.0997C422.071 78.7997 422.671 77.3997 424.071 76.6997C426.971 75.0997 426.471 72.9997 422.971 72.1997C421.071 71.7997 419.571 70.5997 419.071 69.1997C417.671 65.5997 416.371 65.3997 414.071 68.6997Z" fill="white"/>
<path d="M431.57 85.9998C430.57 87.6998 428.97 88.6998 427.47 88.6998C424.47 88.6998 423.67 90.0998 425.27 92.8998C425.97 94.1998 426.57 96.4998 426.57 98.1998C426.57 100.6 426.97 101.2 428.57 100.9C431.27 100.6 433.07 100.6 436.07 100.9C438.17 101.2 438.57 100.8 438.87 97.9998C439.07 96.2998 439.87 94.2998 440.67 93.6998C442.77 91.7998 442.37 90.6998 439.07 89.5998C437.47 88.9998 436.07 88.1998 436.07 87.7998C436.07 87.3998 435.47 86.1998 434.67 85.1998C433.37 83.3998 433.27 83.4998 431.57 85.9998Z" fill="white"/>
<path d="M146.271 85.3997C144.371 86.0997 142.071 91.1997 142.071 94.5997C142.071 96.9997 140.071 99.9997 133.471 107.9C108.871 137.3 92.4708 171.6 84.9708 209.2C81.0708 229.1 81.3708 265.1 85.6708 292.7C91.4708 329.5 108.771 366.6 135.571 399.2C144.171 409.7 153.171 418.7 155.071 418.7C155.671 418.7 157.871 417.4 159.871 415.8C165.171 411.6 175.571 406.2 182.371 404.1C185.471 403.1 188.071 402 188.071 401.5C188.071 401 183.871 398.7 178.871 396.3C160.271 387.7 146.771 378.2 132.171 363.4C116.171 347.2 105.871 330.9 97.4708 308.9C90.3708 290.2 89.7708 278.5 95.2708 263.8C99.5708 252.4 106.671 243.8 126.271 226.4C136.071 217.8 139.271 211.8 139.871 200.8C140.271 193.4 139.871 190.9 135.871 177C134.771 173.1 134.871 172.7 137.771 169.4C139.471 167.5 140.971 165.4 141.171 164.8C141.371 164.2 145.371 163 149.971 162.2C154.571 161.3 161.771 159.7 165.971 158.7C175.771 156.2 176.771 156.1 174.971 158.4C173.671 160 173.771 160.1 175.271 158.8C176.271 158.1 176.871 157.2 176.671 156.8C176.371 156.4 178.471 155.3 181.171 154.4C186.971 152.3 189.571 149.1 188.571 144.9C188.271 143.3 186.271 139 184.071 135.4C181.071 130.2 180.271 128 180.671 125.4C181.071 122.7 179.871 120.1 173.171 108.8C164.171 93.7997 162.471 91.5997 156.171 87.5997C151.871 84.7997 149.171 84.1997 146.271 85.3997ZM156.471 129.7C158.571 133.5 160.371 136.7 160.671 136.7C160.971 136.7 162.271 135.9 163.771 135C166.271 133.3 166.371 133.4 169.171 136.8C170.771 138.7 171.971 140.4 172.071 140.7C172.071 141.4 161.671 147.9 156.571 150.5C149.571 153.9 135.071 156.1 135.071 153.7C135.071 151.3 150.771 122.7 152.071 122.7C152.471 122.7 154.471 125.8 156.471 129.7Z" fill="white"/>
<path d="M444.171 104.2C442.371 107.3 441.671 107.7 438.071 107.7C433.371 107.7 432.871 109.2 436.571 112.7C438.671 114.6 438.971 115.7 438.471 118.4C437.471 123.9 438.371 124.9 442.571 123.1C445.671 121.8 446.471 121.8 449.071 123.2C453.371 125.4 454.071 125.1 454.071 120.7C454.071 117.6 454.671 116 456.571 114.3C460.071 111 459.771 108.9 455.871 108.5C453.171 108.3 452.171 107.5 450.771 104.4C448.471 99.7997 446.871 99.6997 444.171 104.2ZM450.071 106.4C450.071 107.9 453.271 109.7 455.971 109.7C458.771 109.7 458.571 111.5 455.571 113.9C453.671 115.4 453.071 116.8 453.071 119.8C453.071 124 452.471 124.5 449.471 122.2C447.071 120.4 445.271 120.3 441.671 122.2L438.871 123.7L439.471 119.3C440.071 115.5 439.771 114.5 437.571 111.8L434.871 108.7H438.271C442.171 108.7 442.971 108.2 445.471 104.3C447.271 101.5 447.371 101.4 448.671 103.2C449.471 104.2 450.071 105.7 450.071 106.4Z" fill="white"/>
<path d="M472.871 154.4C471.971 155.4 470.571 157.7 469.671 159.4C468.171 162.4 467.671 162.7 463.171 162.7C454.071 162.7 453.071 164.3 458.571 169.7C462.371 173.4 462.871 176.3 461.071 182.7C459.671 187.7 460.971 188.4 467.471 185.7L473.071 183.5L477.471 186.1C484.571 190.3 485.471 189.9 484.671 182.4L483.971 176L488.471 172.3C490.971 170.2 493.071 167.9 493.071 167.2C493.071 166.3 490.871 165.3 486.971 164.5C480.871 163.3 480.871 163.2 478.471 158C475.971 152.3 475.171 151.8 472.871 154.4ZM477.971 159.1C480.171 164.5 480.171 164.5 486.071 165.6C489.371 166.3 492.071 167.2 492.071 167.6C492.071 168.1 490.271 169.7 488.171 171.1C483.271 174.5 482.771 175.7 483.671 182.4C483.971 185.3 483.971 187.7 483.571 187.7C483.171 187.7 480.671 186.5 478.071 185.1L473.271 182.5L467.671 184.6C464.571 185.8 461.871 186.7 461.671 186.7C461.271 186.7 462.671 179.8 463.671 176.5C463.971 175.4 462.671 173.1 459.971 170.2C457.671 167.7 456.071 165.4 456.371 165.1C456.671 164.8 459.571 164.3 462.771 164C468.671 163.5 468.771 163.4 471.471 158.6C472.971 155.9 474.571 153.7 474.971 153.7C475.371 153.7 476.671 156.1 477.971 159.1Z" fill="white"/>
<path d="M311.871 163C305.871 164.7 300.271 169.1 298.471 173.3C296.671 177.6 296.671 185.1 298.571 188.6C302.071 195.5 307.271 197.7 325.071 199.7C336.071 201 339.071 202.5 339.071 206.6C339.071 212.8 330.371 216.6 319.571 215.2C312.971 214.4 303.871 210 302.571 206.9C302.071 205.7 301.371 204.7 301.071 204.7C300.671 204.7 298.771 208.9 295.471 217.2C295.171 217.8 296.671 218.8 298.771 219.4C300.871 220 305.271 221.6 308.571 222.8C316.471 225.7 330.271 226 337.671 223.4C342.571 221.7 347.671 217.4 349.971 213C351.471 210 351.371 201.1 349.671 197.9C346.071 191.1 340.371 188.4 325.371 186.7C319.971 186.1 314.071 185.1 312.271 184.6C308.571 183.4 307.271 180.1 309.071 176.7C312.971 169.5 333.871 170.3 341.671 178.1L344.871 181.3L347.971 175C351.471 167.9 351.571 167.4 349.871 168C349.171 168.2 344.971 167 340.571 165.4C331.071 162 319.271 161 311.871 163Z" fill="white"/>
<path d="M375.27 163.6C366.07 166.8 362.07 172.1 362.07 181.3C362.07 193 367.47 196.9 386.27 199.3C400.57 201 403.47 202.1 403.87 205.9C404.57 211.9 395.37 216.5 385.07 215.3C378.37 214.5 368.97 210 367.57 206.9C367.07 205.7 366.37 204.7 365.97 204.7C365.47 204.7 360.07 217 360.07 218.1C360.07 218.3 361.07 218.7 362.37 219C363.57 219.3 367.77 220.8 371.57 222.3C380.47 225.7 394.57 226.3 402.67 223.4C407.57 221.7 412.67 217.4 414.97 213C416.37 210.2 416.37 201.2 414.97 198.4C411.17 191 405.67 188.6 388.17 186.4C379.27 185.2 376.37 184.5 374.77 182.8C371.87 180 373.37 175.8 378.07 173.4C385.77 169.4 404.77 173.5 408.17 179.9C409.27 182 409.57 181.7 412.67 175.6C416.57 168.1 416.57 167.8 414.37 167.9C413.37 167.9 408.47 166.6 403.47 164.8C392.57 161.1 383.57 160.7 375.27 163.6Z" fill="white"/>
<path d="M180.87 163.9C182.37 165.4 182.57 222.7 181.07 222.7C180.57 222.7 180.07 223.1 180.07 223.7C180.07 224.3 183.37 224.7 188.07 224.7C195.37 224.7 197.77 223.8 195.07 222.2C194.47 221.8 194.07 214 194.07 201.9C194.07 190.3 194.47 182.7 194.97 183.2C195.47 183.8 200.47 193.1 206.07 204.1L216.37 223.9L220.47 216.4C222.77 212.3 227.77 203.1 231.57 195.9C235.47 188.7 238.87 182.7 239.37 182.7C239.77 182.7 240.07 191.3 240.07 201.9C240.07 218.3 239.87 221.3 238.37 222.9C236.87 224.6 237.07 224.7 245.87 224.7C250.97 224.7 255.07 224.4 255.07 224.1C255.07 223.8 254.37 222.9 253.57 222.1C251.27 219.8 251.37 168.2 253.67 164.9L255.17 162.7H243.97C235.17 162.7 232.97 163 233.87 163.9C234.57 164.6 235.07 165.8 235.07 166.7C235.07 168.6 218.77 199 217.47 199.4C216.97 199.6 212.77 192.1 208.07 182.8C200.97 168.4 199.87 165.6 200.97 164.3C202.17 162.9 201.17 162.7 190.97 162.7C182.17 162.7 179.97 163 180.87 163.9Z" fill="white"/>
<path d="M268.57 165.1C269.97 167.2 270.17 171.3 269.87 194.8C269.67 215.5 269.27 222.1 268.37 222.5C267.67 222.7 267.07 223.3 267.07 223.8C267.07 224.3 270.87 224.7 275.57 224.7C283.27 224.7 285.77 223.9 283.07 222.2C282.47 221.8 282.07 211.3 282.07 194C282.07 169.7 282.27 166.1 283.77 164.5C285.27 162.8 285.07 162.7 276.17 162.7H267.07L268.57 165.1Z" fill="white"/>
<path d="M259.27 167.9C257.37 169.8 257.57 216.7 259.47 219.2C260.67 220.8 261.07 220.9 262.47 219.8C263.87 218.6 264.07 215.2 264.07 193.8C264.07 170.1 263.67 166.7 261.07 166.7C260.77 166.7 259.97 167.2 259.27 167.9ZM262.57 193.3C262.57 214.8 262.37 218.2 261.07 218.2C259.77 218.2 259.57 214.9 259.27 195.2C258.97 171.4 259.27 167.3 261.37 168C262.27 168.3 262.57 174.6 262.57 193.3Z" fill="white"/>
<path d="M418.17 192.7C419.37 194.3 420.97 198.4 421.67 201.7C422.77 207.1 422.67 208.3 420.97 212.8C419.97 215.7 418.37 218.9 417.37 220.1C415.67 222.1 415.67 222.1 417.47 220.7C418.57 219.9 420.47 216.8 421.67 213.9C422.97 211.1 424.27 208.7 424.57 208.7C425.37 208.7 433.47 217.7 434.77 220.1C435.47 221.2 436.07 223.3 436.07 224.7C436.17 229.9 437.77 230.2 439.97 225.3C441.07 222.7 442.27 219.1 442.67 217.1C442.97 215.2 443.77 213.4 444.37 213C444.87 212.7 445.07 212.9 444.67 213.5C443.87 214.8 445.67 216 449.27 216.4C451.87 216.7 452.77 215.2 450.97 213.7C450.57 213.4 450.67 212.3 451.07 211.2C451.67 209.4 451.87 209.5 453.37 212.3C454.57 214.6 454.67 215.7 453.77 216.6C453.17 217.2 453.07 217.7 453.57 217.7C455.07 217.7 460.07 211.4 460.07 209.6C460.07 206.8 456.77 205.5 454.27 207.3C452.27 208.7 452.07 208.7 452.07 206.9C452.07 205.9 451.17 204.2 450.07 203.2C448.17 201.5 447.97 201.5 446.17 203.1C444.67 204.5 444.47 205.5 445.07 208.2C445.67 210.9 445.57 211.7 444.47 211.7C443.67 211.7 443.07 210.7 443.07 209.2C443.07 207.8 442.47 205.1 441.67 203.2C440.47 200.3 440.47 199.8 441.67 199.3C443.77 198.5 443.37 195.7 441.07 195.7C439.97 195.7 439.07 196.4 439.07 197.2C439.07 198 438.47 198.4 437.57 198.1C436.47 197.6 436.37 197.1 437.37 195.6C438.27 194.1 438.17 193.4 436.87 192.1C435.97 191.2 434.77 190.8 434.17 191.1C432.27 192.3 432.97 193.5 435.17 193C436.77 192.6 437.17 192.8 436.87 193.8C436.27 195.6 432.07 195.8 431.37 194.1C431.07 193.3 429.97 192.7 428.97 192.7C427.57 192.7 427.07 193.4 427.07 195.3C427.07 196.7 426.67 197.6 426.17 197.3C425.67 196.9 424.87 198.1 424.57 199.9L423.87 203.1L422.17 198.6C420.17 193.4 417.87 189.7 416.77 189.7C416.37 189.7 416.97 191 418.17 192.7Z" fill="white"/>
<path d="M148.171 236.7C146.571 238.1 144.371 238.7 140.971 238.7C137.271 238.7 135.671 239.2 134.071 240.9C131.571 243.7 131.471 246.9 134.071 249.2C138.371 253.1 145.571 249.7 150.471 241.2C154.071 235.1 152.871 232.8 148.171 236.7Z" fill="white"/>
<path d="M198.571 237.7C198.171 238.3 190.371 238.7 178.271 238.7C163.071 238.7 158.971 239 159.871 239.9C161.571 241.6 161.571 279.8 159.871 281.5C158.971 282.4 159.871 282.7 164.071 282.7H169.571V279.5C169.671 277.7 169.771 273.2 169.871 269.4L170.071 262.7H178.671C183.371 262.7 188.071 263.2 189.171 263.7C190.971 264.7 191.071 264.4 191.071 259.5C191.071 255.5 190.771 254.6 189.871 255.5C189.071 256.3 185.271 256.7 179.371 256.7H170.071V251.1V245.6L185.071 245.9L200.071 246.2V241.4C200.071 236.7 199.771 235.8 198.571 237.7Z" fill="white"/>
<path d="M209.87 259.2C210.07 274.6 210.47 279.5 211.37 279.2C212.07 279 213.77 278.6 215.37 278.3L218.07 277.7V265.2C218.07 258.3 218.37 252.7 218.87 252.7C219.27 252.7 224.67 258.3 230.97 265.1C241.87 277 242.57 277.5 246.97 278C249.47 278.2 252.17 278.6 252.87 278.8C253.87 279.1 254.17 275.4 254.07 260.4C253.97 247.4 254.37 241.1 255.17 240.1C256.17 238.9 255.47 238.7 250.97 238.7H245.57L245.77 253.4L246.07 268.2L233.57 255.2C225.17 246.4 221.17 241.6 221.47 240.4C221.87 238.9 221.07 238.7 215.77 238.7H209.57L209.87 259.2Z" fill="white"/>
<path d="M264.871 239.4C265.771 239.7 266.071 244 266.071 255.7C266.071 271.4 266.771 275.6 269.771 278.9C271.171 280.4 271.571 280.5 273.371 279.2C274.571 278.4 277.171 277.7 279.271 277.7C283.571 277.7 284.371 276.2 280.571 275.3C275.671 274 274.971 271.4 275.271 254.3L275.571 238.7L269.571 238.8C266.271 238.8 264.171 239.1 264.871 239.4Z" fill="white"/>
<path d="M299.57 258.2V277.7H302.67C307.37 277.7 308.07 275 308.07 256.9C308.07 245.9 308.47 240.7 309.27 239.9C310.17 239 309.27 238.7 305.07 238.7H299.57V258.2Z" fill="white"/>
<path d="M330.771 240.9C331.071 242.3 328.171 249.8 323.171 260.4L315.171 277.7H319.471C323.371 277.7 323.971 277.4 325.071 274.7C326.071 272.2 326.871 271.7 329.671 271.7C331.771 271.7 333.871 270.9 335.071 269.7C336.771 268 338.371 267.7 345.571 267.7C350.271 267.7 354.071 267.5 354.071 267.3C354.071 267 351.371 261.1 348.071 254.1C343.671 244.6 342.471 241 343.271 240C344.071 239 342.971 238.7 337.371 238.7C330.671 238.7 330.371 238.8 330.771 240.9Z" fill="white"/>
<path d="M368.871 239.9C369.671 240.7 370.071 246.2 370.071 258.1C370.071 267.5 370.471 275.8 370.871 276.5C371.471 277.3 372.771 277.5 374.871 277.1L378.071 276.4V264.3L378.171 252.2L389.471 264.1L400.771 276L407.371 276.1L414.071 276.2V258C414.071 244.4 414.371 239.7 415.371 239.4C415.971 239.1 413.671 238.8 410.171 238.8C405.071 238.7 403.971 239 404.871 239.9C406.271 241.3 406.571 268.1 405.171 267.5C403.071 266.8 381.071 242 381.071 240.4C381.071 239 380.071 238.7 374.371 238.7C369.171 238.7 367.971 239 368.871 239.9Z" fill="white"/>
<path d="M425.87 258.2C426.17 277 426.27 277.7 428.07 276.7C429.07 276.2 431.07 275.7 432.47 275.7H435.07V258.4C435.07 246.3 435.47 240.7 436.27 239.9C437.17 239 436.17 238.7 431.57 238.7H425.57L425.87 258.2Z" fill="white"/>
<path d="M156.27 259.5C156.17 271.1 155.77 275.8 154.97 275.5C154.37 275.3 152.37 272.4 150.67 269.2C147.47 263 146.47 255.1 148.37 249.9C149.47 246.9 147.07 246.9 144.47 250C136.77 258.8 132.07 269.5 132.07 278C132.07 287.5 138.27 295.7 145.37 295.7C150.97 295.7 156.17 291.5 156.07 287C155.97 285.9 155.47 286.4 154.57 288.4C153.17 291.6 148.67 294.7 145.37 294.7C142.07 294.7 137.37 290.9 135.17 286.5C130.97 277.7 133.37 267 142.17 254.8C147.07 248.1 148.47 247.2 146.87 251.8C145.27 256.3 146.37 263.9 149.47 269.4C150.97 272 152.67 275.4 153.37 276.9C153.97 278.5 154.87 279.7 155.37 279.7C155.77 279.7 155.97 279.3 155.67 278.8C155.27 278.3 155.57 277.7 156.07 277.5C156.77 277.3 156.97 271.2 156.77 260.2L156.47 243.2L156.27 259.5Z" fill="white"/>
<path d="M508.371 273.8C507.671 274.5 507.071 276.4 507.071 277.9C507.071 279.6 506.571 280.7 505.671 280.7C503.471 280.7 502.971 283.4 505.171 284C506.871 284.5 507.071 285.5 507.071 293.9C507.071 304.2 507.771 305.7 512.271 305.7C515.571 305.7 516.171 303.2 513.071 302.4C511.271 301.9 511.071 301 510.971 294.3C510.871 290.1 510.771 286.1 510.671 285.4C510.571 284.8 511.571 284.1 512.871 283.9C515.671 283.5 515.271 281.3 512.271 280.9C510.571 280.6 510.071 279.8 509.871 276.6C509.671 273.4 509.371 272.8 508.371 273.8Z" fill="white"/>
<path d="M340.07 290.7C340.07 307 340.17 307.7 342.07 307.7C343.87 307.7 344.07 307 344.07 300.8V293.9L351.97 293.6C358.67 293.3 360.37 292.8 362.37 290.9C365.67 287.8 366.47 284.4 364.97 280C363.47 275.2 359.37 273.7 348.57 273.7H340.07V290.7ZM360.87 280.9C363.67 286.8 357.77 291.3 348.27 290.5L344.57 290.2L344.27 284L343.97 277.8L348.27 277.5C355.77 277 359.47 278 360.87 280.9Z" fill="white"/>
<path d="M176.07 292.7V309.7H185.07C198.07 309.7 201.47 307.5 201.27 299.2C201.27 297.3 200.27 295.4 198.57 294L195.97 291.7L198.17 288.8C201.07 284.9 200.07 280.3 195.77 277.6C193.27 276.1 190.67 275.7 184.37 275.7H176.07V292.7ZM194.57 281.7C196.87 284.3 195.87 288.5 192.47 289.7C191.07 290.3 187.67 290.7 184.97 290.7H180.07V285.2V279.7H186.37C191.47 279.7 193.17 280.1 194.57 281.7ZM194.07 295C196.07 296 196.57 297 196.57 300.2C196.57 305.1 194.07 306.7 185.87 306.7H180.07V300.9C180.07 297.7 180.37 294.7 180.77 294.4C181.87 293.2 191.47 293.7 194.07 295Z" fill="white"/>
<path d="M290.271 276.9C289.571 277.6 289.071 279.3 289.071 280.8C289.071 282.3 288.371 283.7 287.571 284.1C285.671 284.8 285.571 286.7 287.471 286.7C288.571 286.7 288.971 288.9 289.271 296.7C289.571 307.6 290.171 308.7 295.371 308.7C298.771 308.7 298.871 307 295.571 305.7C293.171 304.8 293.071 304.4 293.071 295.7C293.071 287.4 293.171 286.7 295.071 286.7C296.171 286.7 297.071 286 297.071 285.2C297.071 284.4 296.171 283.7 295.071 283.7C293.371 283.7 293.071 283 293.071 279.7C293.071 275.6 292.371 274.8 290.271 276.9Z" fill="white"/>
<path d="M485.57 282.4C483.57 283.5 482.57 283.6 482.27 282.8C482.07 282.2 481.27 281.7 480.47 281.7C479.37 281.7 479.07 284 479.07 293.7C479.07 305 479.17 305.7 481.07 305.7C482.77 305.7 483.07 304.9 483.27 296.6C483.57 287.9 483.67 287.3 486.37 285.3C488.97 283.4 489.37 283.4 491.87 284.8C494.47 286.2 494.57 286.6 494.87 296C495.07 304.9 495.27 305.7 497.07 305.7C498.97 305.7 499.07 305 499.07 295.7C499.07 286.3 498.87 285.4 496.57 283.2C493.77 280.3 489.97 280 485.57 282.4Z" fill="white"/>
<path d="M404.071 282.6C398.371 284.2 395.171 294.2 398.471 300.5C400.971 305.3 403.571 307 407.771 306.5C409.871 306.2 412.371 305.7 413.371 305.3C414.671 304.6 415.071 305 415.071 306.9C415.071 311.3 412.471 313.7 407.571 313.7C404.171 313.7 402.871 313.2 402.071 311.7C400.871 309.4 398.071 309 398.071 311.2C398.071 314.3 402.271 316.7 407.671 316.7C414.571 316.7 417.071 314.6 418.071 308.1C419.271 300.9 418.071 282.7 416.471 282.7C415.771 282.7 415.071 283.2 414.871 283.8C414.671 284.4 413.471 284.3 411.571 283.3C408.371 281.6 407.871 281.5 404.071 282.6ZM412.071 286.5C415.471 289.2 415.971 297.3 413.071 300.9C410.471 304.3 405.971 304.6 403.071 301.7C399.971 298.6 400.271 290.4 403.571 287.2C406.471 284.2 409.071 284 412.071 286.5Z" fill="white"/>
<path d="M428.871 283.7C423.071 288.2 422.471 298.4 427.671 303.8C430.071 306.3 431.171 306.7 435.771 306.7C440.171 306.7 441.671 306.2 443.571 304.2C446.371 301.5 446.671 300.2 444.671 299.4C443.971 299.1 442.371 299.9 441.171 301.3C438.171 304.7 432.971 304.6 430.171 301.1C426.471 296.5 427.271 295.7 435.471 295.7C444.471 295.7 446.071 295.2 446.071 292.1C446.071 283.7 435.471 278.4 428.871 283.7Z" fill="white"/>
<path d="M454.67 283.8C451.97 286 451.17 288.7 453.37 288.7C454.07 288.7 455.37 287.8 456.37 286.7C458.37 284.3 465.17 283.9 467.07 286.2C469.67 289.3 467.87 291.1 461.07 292.3C454.07 293.6 451.07 296 451.07 300.3C451.07 306 458.87 308.6 465.47 305.2C468.17 303.8 468.57 303.8 469.27 305.2C470.67 307.7 473.37 307.1 472.67 304.4C472.37 303.2 472.07 298.5 472.07 293.9C472.07 287 471.77 285.4 470.07 283.7C467.27 280.9 458.37 280.9 454.67 283.8Z" fill="white"/>
<path d="M373.671 285.2C372.271 286.5 371.071 288.1 371.071 288.7C371.071 290.5 374.571 289.8 375.871 287.7C377.671 284.8 385.571 284.8 387.071 287.8C388.871 291 387.671 292.4 382.371 293.1C375.171 294.1 372.371 295.5 370.971 298.8C369.971 301.4 370.071 302.2 371.771 304.5C374.271 307.9 380.871 308.7 384.771 306.1C387.171 304.6 387.471 304.6 388.571 306.1C391.371 309.9 392.071 307.8 391.471 296.9C390.771 284 389.871 282.7 381.571 282.7C377.471 282.7 375.871 283.2 373.671 285.2Z" fill="white"/>
<path d="M240.371 284.8C237.471 285.6 234.071 288.9 234.071 290.9C234.071 292.4 237.871 291.7 238.471 290.2C239.271 288.1 243.671 286.6 246.671 287.3C248.071 287.7 249.771 289.1 250.371 290.4C251.771 293.5 250.671 294.3 243.671 295.2C234.571 296.3 230.471 302.2 235.471 307.1C238.371 310.1 242.971 310.5 247.471 308.2C249.471 307.1 250.771 307 251.471 307.7C251.971 308.2 253.071 308.7 253.771 308.7C255.771 308.7 254.371 288.7 252.171 286.6C250.071 284.5 244.471 283.6 240.371 284.8Z" fill="white"/>
<path d="M300.07 284.3C300.07 284.7 302.17 290.5 304.77 297C309.07 308.2 309.27 309.2 307.97 311.6C307.17 313 305.47 314.3 304.27 314.5C301.67 314.9 301.57 318 304.17 318.5C307.67 319.1 310.17 315.1 315.57 300.3C318.57 292.1 321.07 285 321.07 284.5C321.07 284.1 320.47 283.7 319.67 283.7C318.27 283.7 315.77 289.3 313.07 298.4C312.37 300.8 311.47 302.7 311.07 302.7C310.67 302.7 308.87 298.5 306.97 293.5C304.67 287.2 302.97 284.1 301.77 283.9C300.87 283.7 300.07 283.9 300.07 284.3Z" fill="white"/>
<path d="M212.27 286C207.57 288.6 205.57 294.5 207.07 301.3C208.37 306.9 211.97 309.7 218.17 309.7C222.47 309.7 223.67 309.2 226.37 306.6C229.17 303.7 229.27 303.4 227.67 302.5C226.17 301.7 225.37 302 223.67 304.2C221.87 306.4 220.87 306.8 217.57 306.5C214.37 306.3 213.37 305.6 211.77 303C210.77 301.2 210.17 299.3 210.57 298.7C210.87 298.1 215.07 297.7 220.17 297.7C228.47 297.7 229.07 297.6 229.07 295.7C229.07 292.8 226.47 288.1 223.87 286.3C221.17 284.4 215.47 284.3 212.27 286Z" fill="white"/>
<path d="M261.371 294.8C262.071 305.9 263.071 308.1 268.171 309.2C270.271 309.7 272.171 309.3 274.571 307.8C277.371 306.2 278.071 306.1 278.071 307.2C278.071 308 278.771 308.7 279.571 308.7C280.871 308.7 281.071 306.7 281.071 296.7C281.071 286.7 280.871 284.7 279.571 284.7C278.371 284.7 278.071 286.1 278.071 291.6C278.071 300.1 276.571 304.6 273.371 305.8C269.971 307.1 269.371 307 267.071 304.7C265.371 303 265.071 301.4 265.071 293.7C265.071 285.2 264.971 284.7 262.871 284.7C260.771 284.7 260.771 284.9 261.371 294.8Z" fill="white"/>
<path d="M81.8703 293.2C81.0703 294.6 83.6703 326.8 86.0703 345.7C93.9703 406.4 100.27 428.9 112.87 441.3C119.67 448 128.37 449.6 136.37 445.6C141.07 443.2 152.57 432 153.57 428.8C154.07 427.2 152.67 425.4 146.77 419.7C126.67 400.6 105.97 367.6 94.7703 336.7C90.3703 324.5 85.0703 305 85.0703 300.5C84.9703 297.4 82.5703 292 81.8703 293.2Z" fill="white"/>
<path d="M158.571 295.1C157.671 296.5 155.371 298.1 153.471 298.7C146.771 301 144.871 306.2 149.671 309.3C152.071 310.9 152.471 310.9 155.671 309.3C159.571 307.5 162.071 302.8 162.071 297.3C162.071 292.9 160.571 292 158.571 295.1Z" fill="white"/>
<path d="M100.57 304.7C99.5705 306.3 117.47 327.1 126.97 335.5C141.67 348.4 155.97 356.7 174.07 362.9C181.77 365.5 197.77 369.7 200.07 369.7C202.07 369.7 200.97 366.6 197.47 362C194.17 357.7 193.97 356.9 194.47 352.3C194.77 349.5 195.07 345.9 195.27 344.2L195.57 341.2L185.07 340.9C156.37 340.1 130.37 329.3 107.47 308.6C101.57 303.3 101.47 303.2 100.57 304.7Z" fill="white"/>
<path d="M78.6706 311.3C77.4706 317.6 69.4706 341 66.5706 346.7C57.4706 364.7 43.1706 379.3 28.4706 385.9C24.6706 387.5 2.67064 393.7 0.470641 393.7C-0.529359 393.7 0.170641 402.8 1.57064 406C4.47064 413 11.7706 416.8 26.4706 418.7L36.3706 420L40.2706 415.6C57.4706 395.7 71.0706 366.2 76.5706 336.2L78.0706 328.2L77.4706 336.2C75.7706 362.3 63.8706 390.9 45.3706 414C39.3706 421.5 38.8706 424.4 43.5706 423.9C45.2706 423.8 52.4706 423.4 59.5706 423.1C70.6706 422.6 73.8706 422.8 81.1706 424.6C91.6706 427.1 95.8706 427.3 96.7706 425.1C97.0706 424.2 95.7706 418 93.7706 411.3C87.6706 390.7 85.5706 376.1 82.3706 331.9C81.4706 318.6 80.3706 307.7 79.9706 307.7C79.5706 307.7 78.9706 309.3 78.6706 311.3Z" fill="white"/>
<path d="M101.07 313.1C101.07 315.9 112.17 335.1 119.87 345.7C128.07 356.8 145.07 373.3 156.07 380.6C171.77 391.1 194.27 401.7 200.67 401.7C204.67 401.7 210.67 395.4 211.67 390.2C212.47 386 211.57 378 210.07 376.2C209.47 375.5 206.47 374.7 203.27 374.4C181.27 372 153.77 360.5 134.17 345.4C126.07 339.2 111.47 324.2 106.97 317.6C103.07 311.9 101.07 310.3 101.07 313.1Z" fill="white"/>
<path d="M418.17 366.6C417.57 367.6 415.77 368.7 414.07 369C410.77 369.7 410.17 371.7 412.67 373.8C413.77 374.7 414.07 376 413.67 378.3L413.07 381.4H419.57C425.87 381.3 426.07 381.3 426.07 378.7C426.07 377.3 426.77 375.1 427.67 373.9C429.47 371.3 428.77 369.7 425.97 369.7C424.77 369.7 423.67 368.7 423.07 367.2C421.97 364.2 419.57 363.9 418.17 366.6Z" fill="white"/>
<path d="M290.871 368.5C290.171 369.5 288.171 370.7 286.371 371C284.571 371.4 282.171 372.6 280.971 373.8C279.171 375.6 278.971 376.3 279.971 377.8C280.771 379.1 280.771 379.7 279.971 379.7C278.371 379.7 279.471 382.2 281.171 382.3C285.271 382.6 285.471 382.7 284.371 383.8C283.771 384.4 283.471 385.6 283.771 386.3C284.771 389.1 282.071 390.4 274.271 391.1L266.471 391.8V396.5L266.571 401.2L257.071 401.9C251.871 402.3 236.871 403 223.771 403.5C210.671 404 199.771 404.7 199.471 405C199.171 405.3 200.471 406.6 202.271 408C214.371 417.1 241.871 425.4 271.171 428.7C286.071 430.5 317.071 429.5 332.371 426.8C347.471 424.2 361.171 420.5 370.571 416.6C380.871 412.4 393.471 404.6 393.871 402.3C394.271 400.5 393.571 400.4 379.271 400.9C365.171 401.4 353.371 400.3 351.471 398.4C350.171 397.1 346.371 397.7 343.971 399.6C342.371 400.8 338.971 401.7 333.771 402.2L326.071 402.9L323.371 399.8C321.871 398.1 320.171 396.7 319.571 396.7C317.971 396.7 312.871 391.2 313.771 390.4C314.071 390 315.271 389.7 316.271 389.7C317.271 389.7 318.071 389.2 318.071 388.7C318.071 388.1 318.771 387.7 319.571 387.7C320.371 387.7 321.071 387 321.071 386.2C321.071 385.4 320.271 384.7 319.371 384.8C318.171 384.8 318.071 385 318.871 385.4C320.571 386.1 317.371 388.6 314.871 388.7C313.871 388.7 313.071 389.2 313.071 389.8C313.071 390.5 311.871 390.7 309.571 390.3C305.471 389.5 305.171 390.5 308.371 393.5C311.171 396.2 313.071 396.3 313.071 393.9C313.171 392.6 313.571 392.8 315.171 394.9C316.271 396.5 318.071 397.7 319.071 397.7C320.071 397.7 321.271 398.6 321.571 399.7C321.871 400.8 323.071 402.2 324.271 402.8C326.971 404.3 343.071 402.9 343.771 401.2C344.371 399.5 348.971 398.4 350.371 399.5C353.171 401.7 363.571 402.6 378.271 402C393.471 401.4 393.571 401.4 391.771 403.4C388.871 406.7 371.071 415.5 359.971 419.1C347.171 423.3 341.071 424.3 337.971 422.7C335.771 421.7 335.771 421.7 337.371 423C338.971 424.3 338.771 424.5 335.371 425C333.271 425.3 330.471 425.5 329.071 425.3C327.671 425.2 326.371 425.4 326.071 425.8C325.171 427.1 304.771 428.8 303.671 427.7C303.171 427.2 300.671 426.8 298.071 426.8C293.571 427 293.571 427 297.071 427.7C300.071 428.3 299.671 428.4 294.571 428.5C290.371 428.5 289.271 428.3 291.071 427.7C292.471 427.3 287.771 427 280.571 427.1C273.471 427.2 265.071 426.9 262.071 426.4C242.071 423.6 220.171 417.1 208.271 410.4L200.871 406.2L205.771 405.6C208.371 405.3 217.571 404.9 226.071 404.9C234.571 404.8 244.771 404.2 248.771 403.6C252.671 403 257.571 402.7 259.771 402.9C261.871 403.2 264.671 403 265.871 402.5C267.971 401.8 268.271 401.1 267.871 397.2C267.671 394.7 267.871 392.7 268.271 392.7C268.771 392.7 269.071 394.9 269.071 397.7C269.071 403 269.871 403.8 272.571 401C273.671 400 274.071 398.2 273.871 396.1C273.471 392.6 274.671 391.7 280.271 391.7C281.671 391.7 283.171 391.1 283.371 390.4C283.771 389.4 283.971 389.4 283.971 390.4C284.071 391.1 284.971 391.7 286.071 391.7C287.771 391.7 288.071 392.4 288.071 395.7C288.071 400 289.271 400.7 292.471 398.4C294.071 397.3 294.171 396.2 293.571 391.8C292.771 385.9 291.071 384.5 288.071 387.2C286.971 388.2 285.771 388.7 285.371 388.4C285.071 388 285.071 387.7 285.571 387.7C285.971 387.7 285.771 387 285.071 386.2C284.071 385 284.171 384.6 285.471 384.1C287.971 383.1 287.371 381.9 284.071 381.2C282.371 380.8 281.371 380.1 281.671 379.5C282.071 378.9 281.671 378.1 280.971 377.6C279.871 376.8 280.171 376.2 282.371 374.2C283.871 372.8 286.071 371.7 287.271 371.7C288.371 371.7 290.371 370.6 291.671 369.2C292.971 367.8 293.571 366.7 293.071 366.7C292.571 366.7 291.571 367.5 290.871 368.5Z" fill="white"/>
<path d="M398.471 383.1C397.671 384.5 395.571 385.9 393.971 386.2C390.771 386.9 390.371 388.3 392.471 391.2C393.371 392.4 393.671 394.4 393.271 396.6C392.771 399.7 392.971 400 394.671 399.2C395.671 398.7 398.571 398.3 401.071 398.3C405.071 398.2 405.571 397.9 405.871 395.7C406.071 394.4 406.871 392.4 407.671 391.3C409.171 389.2 407.971 386.7 405.471 386.7C404.771 386.7 403.471 385.3 402.571 383.7C400.671 380.1 400.571 380.1 398.471 383.1Z" fill="white"/>
</svg>
